<?xml version="1.0" encoding="UTF-8" standalone="no"?>
<svg
   xmlns:dc="http://purl.org/dc/elements/1.1/"
   xmlns:cc="http://creativecommons.org/ns#"
   xmlns:rdf="http://www.w3.org/1999/02/22-rdf-syntax-ns#"
   xmlns:svg="http://www.w3.org/2000/svg"
   xmlns="http://www.w3.org/2000/svg"
   xmlns:sodipodi="http://sodipodi.sourceforge.net/DTD/sodipodi-0.dtd"
   xmlns:inkscape="http://www.inkscape.org/namespaces/inkscape"
   sodipodi:docname="drawing.svg"
   inkscape:version="1.0 (4035a4fb49, 2020-05-01)"
   id="svg8"
   version="1.1"
   viewBox="0 0 210 297"
   height="297mm"
   width="210mm">
  <defs
     id="defs2" />
  <sodipodi:namedview
     inkscape:window-maximized="1"
     inkscape:window-y="-9"
     inkscape:window-x="-9"
     inkscape:window-height="1001"
     inkscape:window-width="1920"
     showborder="true"
     showgrid="false"
     inkscape:document-rotation="0"
     inkscape:current-layer="layer1"
     inkscape:document-units="px"
     inkscape:cy="535.85002"
     inkscape:cx="454.83125"
     inkscape:zoom="0.57848045"
     inkscape:pageshadow="2"
     inkscape:pageopacity="0.0"
     borderopacity="1.0"
     bordercolor="#666666"
     pagecolor="#ffffff"
     id="base" />
  <metadata
     id="metadata5">
    <rdf:RDF>
      <cc:Work
         rdf:about="">
        <dc:format>image/svg+xml</dc:format>
        <dc:type
           rdf:resource="http://purl.org/dc/dcmitype/StillImage" />
        <dc:title></dc:title>
      </cc:Work>
    </rdf:RDF>
  </metadata>
  <g
     id="layer1"
     inkscape:groupmode="layer"
     inkscape:label="Layer 1">
    <ellipse
       ry="37.504868"
       rx="35.904049"
       cy="88.731026"
       cx="136.52687"
       id="path14"
       style="fill:#00ffff;stroke:#000000;stroke-width:0.264583" />
    <path
       id="path18"
       d="m 133.09654,82.32776 c 3.20164,4.573764 1.37213,8.690152 1.37213,8.690152 l 0.45738,16.922928 0.45738,-6.86065 9.14752,11.89179 8.23278,-5.03114 0.91475,-6.40327 -2.74426,-5.031142 -3.65901,-2.744258 v 0 l 9.14753,-11.43441 -1.37213,4.573764 v 0 0 l 1.82951,0.914752 v 0 l 9.14753,1.372129 -1.37213,-3.201635 -0.45738,-1.829504 -1.8295,-0.457377 -6.40328,-11.434411 -3.20163,2.286881 -17.3803,-5.945894 1.8295,-2.744258 v 0 l 1.37213,-1.372129 -5.94589,2.286881 -1.37213,-0.457375 h -0.91475 l -4.57377,10.977034 h 1.82951 l 0.91475,1.829506 -9.14753,11.43441 h 2.28688 v 0 h 9.14753 l 0.45738,4.573765 1.8295,0.914752 h 0.91476 v 0"
       style="fill:none;stroke:#000000;stroke-width:0.264583px;stroke-linecap:butt;stroke-linejoin:miter;stroke-opacity:1" />
    <path
       transform="scale(0.26458333)"
       id="path20"
       d="m 529.8699,403.09304 c -9.29782,-12.07729 -17.61122,-22.43834 -18.47422,-23.02456 -0.87199,-0.59233 -1.30556,-13.28375 -0.97593,-28.5669 0.51908,-24.06606 0.18517,-28.40733 -2.6733,-34.75687 -1.79655,-3.99071 -3.92999,-6.84575 -4.74097,-6.34454 -0.81098,0.50122 0.14339,4.08267 2.12085,7.95879 3.24285,6.3565 3.47557,8.80489 2.37365,24.9716 -0.88584,12.9964 -1.84386,17.92411 -3.48474,17.92411 -4.51293,0 -7.69599,-5.3914 -7.69599,-13.03528 v -7.60231 l -20.60411,-0.48538 -20.60411,-0.48537 16.27772,-20.24086 c 15.18727,-18.88491 16.14365,-20.53512 14.2763,-24.6335 -1.10078,-2.41596 -3.34824,-4.39265 -4.99436,-4.39265 -2.53707,0 -1.77542,-2.91537 5.00042,-19.14015 7.51854,-18.00318 8.25189,-19.09072 12.34548,-18.30819 2.39366,0.45758 6.97549,-0.26415 10.18183,-1.60385 8.54116,-3.56872 9.5307,-3.04032 5.33663,2.84972 -2.07,2.90704 -3.48429,5.53883 -3.14288,5.84842 0.34141,0.30959 15.69836,5.72385 34.12655,12.03167 l 33.50581,11.46878 5.49556,-4.19167 5.49556,-4.19167 11.67302,21.08563 c 6.64794,12.00855 13.24066,21.79967 15.31458,22.74431 3.06401,1.39561 9.33182,14.10542 7.74071,15.69654 -0.71112,0.71112 -29.0823,-3.99998 -32.7679,-5.44118 -3.05629,-1.19512 -2.91026,-4.60064 0.60694,-14.15366 3.31887,-9.01434 -2.28498,-4.0321 -18.83206,16.74313 -9.71136,12.19282 -17.65702,22.53159 -17.65702,22.97504 0,0.44345 3.08771,2.94605 6.86157,5.56134 3.86781,2.6804 9.19505,8.88978 12.20983,14.23167 5.18068,9.17967 5.29326,9.82988 3.59296,20.75129 -0.96542,6.20109 -1.98692,11.49592 -2.27,11.7663 -0.28308,0.27038 -6.85936,4.41951 -14.61397,9.22028 l -14.09928,8.72867 z"
       style="fill:#00ff00;stroke:#000000;stroke-width:1.72867" />
    <path
       transform="scale(0.26458333)"
       id="path22"
       d="m 485.3966,471.77501 c -37.4063,-9.19225 -70.1911,-35.90144 -87.65529,-71.41119 -12.4506,-25.31567 -14.64974,-35.07899 -14.64974,-65.03916 0,-28.21719 2.19644,-39.18155 12.01338,-59.96933 23.19797,-49.12267 69.70486,-80.07212 120.22964,-80.01056 35.84204,0.0437 65.96454,12.68087 92.61122,38.85288 41.3091,40.57324 53.41305,101.59424 31.10639,156.81997 -16.21993,40.1565 -53.73031,72.17197 -95.53586,81.54077 -16.6067,3.72163 -41.13258,3.39106 -58.11974,-0.78338 z m 77.79058,-53.27077 15.60163,-9.30408 1.68302,-13.16859 c 1.64474,-12.86916 1.56352,-13.38839 -3.57202,-22.83629 -2.89028,-5.31724 -8.19106,-11.77816 -11.77953,-14.3576 l -6.52449,-4.68989 13.13144,-16.32623 c 7.2223,-8.97943 13.45029,-16.32623 13.84,-16.32623 0.38971,0 0.24986,1.82762 -0.31078,4.06138 -0.82662,3.29355 -0.0975,4.43336 3.85657,6.02899 4.87819,1.96853 38.8354,7.52204 39.84157,6.51586 0.2934,-0.2934 -1.01909,-3.95535 -2.91664,-8.13767 -1.89754,-4.18233 -3.46717,-8.91145 -3.48806,-10.50917 -0.0218,-1.6659 -1.67309,-3.14054 -3.87159,-3.45733 -2.88799,-0.41614 -6.70805,-5.66921 -15.48681,-21.2964 -6.40926,-11.4092 -11.94367,-21.5193 -12.29867,-22.4669 -0.35502,-0.94759 -3.54742,0.49052 -7.09423,3.1958 l -6.44872,4.91869 -31.90576,-11.05634 -31.90576,-11.05633 6.02382,-7.03748 c 3.3131,-3.87062 5.59314,-7.46817 5.06675,-7.99456 -0.52639,-0.52639 -5.92242,0.91187 -11.99117,3.19614 -6.83776,2.57373 -12.87446,3.78515 -15.8733,3.18538 -4.73703,-0.9474 -5.01036,-0.55432 -12.94482,18.61655 -11.52757,27.85235 -11.00668,25.63472 -6.02128,25.63472 8.39739,0 6.44871,4.70957 -10.96024,26.48871 -9.45607,11.82986 -17.19286,21.98894 -17.19286,22.57573 0,0.58679 9.63302,1.0669 21.40671,1.0669 23.59825,0 23.45061,-0.0774 23.51502,12.32311 0.0182,3.49789 1.31712,5.06731 5.64177,6.81652 3.08999,1.24983 6.18968,3.09448 6.8882,4.09923 0.69851,1.00474 1.28194,10.53227 1.2965,21.17228 0.015,11.00214 0.77201,19.80626 1.75514,20.41386 1.08656,0.67154 1.72866,-3.22182 1.72866,-10.48165 0,-14.09461 -0.32596,-14.28795 19.20657,11.39221 7.94371,10.44388 14.90629,18.78997 15.47242,18.54684 0.56612,-0.24314 8.05004,-4.62891 16.63094,-9.74616 z"
       style="fill:#00ffff;stroke:#000000;stroke-width:1.72867" />
  </g>
</svg>
